<mxfile host="app.diagrams.net" agent="Mozilla/5.0 (Windows NT 10.0; Win64; x64) AppleWebKit/537.36 (KHTML, like Gecko) Chrome/129.0.0.0 Safari/537.36" version="24.7.17">
  <diagram name="Page-1" id="MChkP951BM0UdAlkXYUB">
    <mxGraphModel dx="1050" dy="1726" grid="1" gridSize="10" guides="1" tooltips="1" connect="1" arrows="1" fold="1" page="1" pageScale="1" pageWidth="827" pageHeight="1169" math="0" shadow="0">
      <root>
        <mxCell id="0" />
        <mxCell id="1" parent="0" />
        <mxCell id="EHBQRL0nWtbQGeXT7oju-1" value="Serveur de données" style="verticalAlign=top;align=left;spacingTop=8;spacingLeft=2;spacingRight=12;shape=cube;size=10;direction=south;fontStyle=4;html=1;whiteSpace=wrap;" vertex="1" parent="1">
          <mxGeometry x="40" y="120" width="180" height="80" as="geometry" />
        </mxCell>
        <mxCell id="EHBQRL0nWtbQGeXT7oju-2" value="Serveur d&#39;application" style="verticalAlign=top;align=left;spacingTop=8;spacingLeft=2;spacingRight=12;shape=cube;size=10;direction=south;fontStyle=4;html=1;whiteSpace=wrap;" vertex="1" parent="1">
          <mxGeometry x="300" y="120" width="180" height="160" as="geometry" />
        </mxCell>
        <mxCell id="EHBQRL0nWtbQGeXT7oju-3" value="Serveur web" style="verticalAlign=top;align=left;spacingTop=8;spacingLeft=2;spacingRight=12;shape=cube;size=10;direction=south;fontStyle=4;html=1;whiteSpace=wrap;" vertex="1" parent="1">
          <mxGeometry x="560" y="120" width="180" height="160" as="geometry" />
        </mxCell>
        <mxCell id="EHBQRL0nWtbQGeXT7oju-4" value="Serveur de géolocalisation" style="verticalAlign=top;align=left;spacingTop=8;spacingLeft=2;spacingRight=12;shape=cube;size=10;direction=south;fontStyle=4;html=1;whiteSpace=wrap;" vertex="1" parent="1">
          <mxGeometry x="430" y="-10" width="180" height="70" as="geometry" />
        </mxCell>
        <mxCell id="EHBQRL0nWtbQGeXT7oju-5" value="Serveur de OpenStreetMap" style="verticalAlign=top;align=left;spacingTop=8;spacingLeft=2;spacingRight=12;shape=cube;size=10;direction=south;fontStyle=4;html=1;whiteSpace=wrap;" vertex="1" parent="1">
          <mxGeometry x="750" y="-10" width="180" height="70" as="geometry" />
        </mxCell>
        <mxCell id="EHBQRL0nWtbQGeXT7oju-6" value="Code frontend" style="shape=module;align=left;spacingLeft=20;align=center;verticalAlign=top;whiteSpace=wrap;html=1;" vertex="1" parent="1">
          <mxGeometry x="590" y="160" width="100" height="50" as="geometry" />
        </mxCell>
        <mxCell id="EHBQRL0nWtbQGeXT7oju-7" value="Bibliothèques Next" style="shape=module;align=left;spacingLeft=20;align=center;verticalAlign=top;whiteSpace=wrap;html=1;" vertex="1" parent="1">
          <mxGeometry x="590" y="220" width="100" height="50" as="geometry" />
        </mxCell>
        <mxCell id="EHBQRL0nWtbQGeXT7oju-8" value="" style="endArrow=classic;startArrow=classic;html=1;rounded=0;entryX=0.313;entryY=1;entryDx=0;entryDy=0;entryPerimeter=0;" edge="1" parent="1">
          <mxGeometry width="50" height="50" relative="1" as="geometry">
            <mxPoint x="220" y="152" as="sourcePoint" />
            <mxPoint x="300" y="152.07999999999993" as="targetPoint" />
          </mxGeometry>
        </mxCell>
        <mxCell id="EHBQRL0nWtbQGeXT7oju-9" value="HTTP" style="text;html=1;align=center;verticalAlign=middle;resizable=0;points=[];autosize=1;strokeColor=none;fillColor=none;" vertex="1" parent="1">
          <mxGeometry x="235" y="127" width="50" height="30" as="geometry" />
        </mxCell>
        <mxCell id="EHBQRL0nWtbQGeXT7oju-10" value="" style="endArrow=classic;startArrow=classic;html=1;rounded=0;entryX=0.42;entryY=1.002;entryDx=0;entryDy=0;entryPerimeter=0;" edge="1" parent="1">
          <mxGeometry width="50" height="50" relative="1" as="geometry">
            <mxPoint x="480" y="152" as="sourcePoint" />
            <mxPoint x="560" y="152" as="targetPoint" />
          </mxGeometry>
        </mxCell>
        <mxCell id="EHBQRL0nWtbQGeXT7oju-11" value="HTTP" style="text;html=1;align=center;verticalAlign=middle;resizable=0;points=[];autosize=1;strokeColor=none;fillColor=none;" vertex="1" parent="1">
          <mxGeometry x="495" y="127" width="50" height="30" as="geometry" />
        </mxCell>
        <mxCell id="EHBQRL0nWtbQGeXT7oju-14" value="" style="endArrow=classic;startArrow=classic;html=1;rounded=0;entryX=-0.005;entryY=0.74;entryDx=0;entryDy=0;entryPerimeter=0;exitX=1.013;exitY=0.387;exitDx=0;exitDy=0;exitPerimeter=0;" edge="1" parent="1">
          <mxGeometry width="50" height="50" relative="1" as="geometry">
            <mxPoint x="544.9999999999999" y="62.35999999999994" as="sourcePoint" />
            <mxPoint x="611.4599999999999" y="120.00000000000004" as="targetPoint" />
          </mxGeometry>
        </mxCell>
        <mxCell id="EHBQRL0nWtbQGeXT7oju-15" value="HTTP" style="text;html=1;align=center;verticalAlign=middle;resizable=0;points=[];autosize=1;strokeColor=none;fillColor=none;" vertex="1" parent="1">
          <mxGeometry x="567.66" y="70.8" width="50" height="30" as="geometry" />
        </mxCell>
        <mxCell id="EHBQRL0nWtbQGeXT7oju-16" value="" style="endArrow=classic;startArrow=classic;html=1;rounded=0;exitX=0.22;exitY=0.98;exitDx=0;exitDy=0;exitPerimeter=0;entryX=1.046;entryY=0.787;entryDx=0;entryDy=0;entryPerimeter=0;" edge="1" parent="1" source="EHBQRL0nWtbQGeXT7oju-17" target="EHBQRL0nWtbQGeXT7oju-5">
          <mxGeometry width="50" height="50" relative="1" as="geometry">
            <mxPoint x="680" y="114" as="sourcePoint" />
            <mxPoint x="790" y="70" as="targetPoint" />
          </mxGeometry>
        </mxCell>
        <mxCell id="EHBQRL0nWtbQGeXT7oju-17" value="HTTP" style="text;html=1;align=center;verticalAlign=middle;resizable=0;points=[];autosize=1;strokeColor=none;fillColor=none;" vertex="1" parent="1">
          <mxGeometry x="700" y="90" width="50" height="30" as="geometry" />
        </mxCell>
        <mxCell id="EHBQRL0nWtbQGeXT7oju-19" value="Code backend" style="shape=module;align=left;spacingLeft=20;align=center;verticalAlign=top;whiteSpace=wrap;html=1;" vertex="1" parent="1">
          <mxGeometry x="331" y="160" width="100" height="50" as="geometry" />
        </mxCell>
        <mxCell id="EHBQRL0nWtbQGeXT7oju-20" value="Bibliothèques Spring" style="shape=module;align=left;spacingLeft=20;align=center;verticalAlign=top;whiteSpace=wrap;html=1;" vertex="1" parent="1">
          <mxGeometry x="331" y="220" width="100" height="50" as="geometry" />
        </mxCell>
        <mxCell id="EHBQRL0nWtbQGeXT7oju-21" value="Périphérique Final" style="verticalAlign=top;align=left;spacingTop=8;spacingLeft=2;spacingRight=12;shape=cube;size=10;direction=south;fontStyle=4;html=1;whiteSpace=wrap;" vertex="1" parent="1">
          <mxGeometry x="560" y="358" width="180" height="120" as="geometry" />
        </mxCell>
        <mxCell id="EHBQRL0nWtbQGeXT7oju-22" value="" style="endArrow=classic;startArrow=classic;html=1;rounded=0;entryX=0.01;entryY=0.527;entryDx=0;entryDy=0;entryPerimeter=0;exitX=0;exitY=0;exitDx=160;exitDy=95;exitPerimeter=0;" edge="1" parent="1" source="EHBQRL0nWtbQGeXT7oju-3" target="EHBQRL0nWtbQGeXT7oju-21">
          <mxGeometry width="50" height="50" relative="1" as="geometry">
            <mxPoint x="617.66" y="310" as="sourcePoint" />
            <mxPoint x="697.66" y="310" as="targetPoint" />
          </mxGeometry>
        </mxCell>
        <mxCell id="EHBQRL0nWtbQGeXT7oju-23" value="HTTP" style="text;html=1;align=center;verticalAlign=middle;resizable=0;points=[];autosize=1;strokeColor=none;fillColor=none;" vertex="1" parent="1">
          <mxGeometry x="641" y="303" width="50" height="30" as="geometry" />
        </mxCell>
        <mxCell id="EHBQRL0nWtbQGeXT7oju-24" value="Navigateur" style="shape=module;align=left;spacingLeft=20;align=center;verticalAlign=top;whiteSpace=wrap;html=1;" vertex="1" parent="1">
          <mxGeometry x="580" y="393" width="100" height="50" as="geometry" />
        </mxCell>
      </root>
    </mxGraphModel>
  </diagram>
</mxfile>
